<svg t="1689602649179" class="icon" viewBox="0 0 1024 1024" version="1.1" xmlns="http://www.w3.org/2000/svg" p-id="3922" width="200" height="200"><path d="M192 320a64 64 0 0 1 64 64v448a64 64 0 0 1-64 64H64c-35.285 0-64-28.672-64-64V384c0-35.328 28.715-64 64-64h128z m384-192a64 64 0 0 1 64 64v640a64 64 0 0 1-64 64H448c-35.285 0-64-28.672-64-64V192c0-35.328 28.715-64 64-64h128z m384 320a64 64 0 0 1 64 64v320a64 64 0 0 1-64 64H832a64 64 0 0 1-64-64V512a64 64 0 0 1 64-64h128z" fill="#8A8A8A" p-id="3923"></path></svg>